<svg xmlns="http://www.w3.org/2000/svg" version="1.1" xmlns:xlink="http://www.w3.org/1999/xlink" xmlns:svgjs="http://svgjs.dev/svgjs" width="2000" height="1282" viewBox="0 0 2000 1282"><g transform="matrix(1,0,0,1,-1.1280171081916706,0.1351788252491133)"><svg viewBox="0 0 396 254" data-background-color="#fdfbe2" preserveAspectRatio="xMidYMid meet" height="1282" width="2000" xmlns="http://www.w3.org/2000/svg" xmlns:xlink="http://www.w3.org/1999/xlink"><g id="tight-bounds" transform="matrix(1,0,0,1,0.2566526125780797,-0.026782700166364748)"><svg viewBox="0 0 395.52 254.05347580147298" height="254.05347580147298" width="395.52"><g><svg viewBox="0 0 395.52 254.05347580147298" height="254.05347580147298" width="395.52"><g transform="matrix(1,0,0,1,0,131.39833382969667)"><svg viewBox="0 0 395.52 122.65514197177632" height="122.65514197177632" width="395.52"><g><svg viewBox="0 0 395.52 122.65514197177632" height="122.65514197177632" width="395.52"><g><svg viewBox="0 0 395.52 122.65514197177632" height="122.65514197177632" width="395.52"><g transform="matrix(1,0,0,1,0,0)"><svg width="395.52" viewBox="1.8059313667299253 -14.687008159337523 184.73425814523569 57.29238909743463" height="122.65514197177632" data-palette-color="#454545"><path d="M27.347-14.174c2.369 0.935 3.961 2.865 4.777 5.789 0.813 2.916 0.65 5.815-0.488 8.698-1.141 2.89-3.146 5.635-6.016 8.237-2.863 2.604-5.947 4.479-9.252 5.625v0c-0.014 1.507 0.011 3.176 0.076 5.008v0c0.083 3.638 0.027 5.705-0.169 6.201v0c-0.162 0.409-0.531 0.5-1.108 0.272-0.583-0.23-1.006-1.336-1.27-3.318-0.26-1.973-0.362-4.447-0.306-7.421v0c-2.656 0.5-5.028 0.337-7.118-0.488-2.09-0.825-3.5-2.317-4.231-4.477-0.735-2.168-0.573-4.595 0.487-7.28 1.06-2.685 2.652-5.274 4.777-7.768 2.121-2.503 4.353-4.506 6.696-6.012 2.345-1.511 4.71-2.563 7.094-3.154 2.378-0.595 4.395-0.565 6.051 0.088zM26.46-11.385v0c-0.812-0.321-1.786-0.415-2.92-0.282v0c-1.23 1.027-2.381 2.898-3.453 5.614v0c-1.946 4.93-3.152 10.532-3.615 16.807v0c2.649-1.226 5.105-2.873 7.368-4.939 2.258-2.069 3.86-4.303 4.808-6.703 0.95-2.406 1.165-4.622 0.646-6.647-0.519-2.026-1.464-3.309-2.834-3.85zM5.454 3.587c-0.788 1.997-0.948 3.772-0.48 5.326 0.466 1.56 1.416 2.623 2.848 3.188 1.439 0.568 3.406 0.478 5.902-0.271v0c0.417-7.627 1.519-13.703 3.307-18.23v0c0.664-1.68 1.518-3.074 2.564-4.18v0c-2.872 1.246-5.649 3.17-8.333 5.773-2.69 2.601-4.626 5.398-5.808 8.394zM51.794 4.087v0c0.127-0.518 0.434-0.717 0.919-0.598v0c0.388 0.096 0.722 0.497 1.001 1.205 0.273 0.706 0.329 1.385 0.168 2.039v0c-0.048 0.194-3.368 6.044-9.961 17.548v0c-0.731 1.269-1.355 1.839-1.873 1.712v0c-0.719-0.177-0.946-0.803-0.682-1.877 0.264-1.075 1.35-3.173 3.259-6.294v0c-1.967 2.248-3.987 3.9-6.06 4.956-2.074 1.062-3.862 1.408-5.363 1.038-1.495-0.368-2.616-1.255-3.362-2.66-0.738-1.41-0.939-2.799-0.603-4.164v0c0.497-2.02 1.555-4.396 3.175-7.128 1.618-2.726 3.249-5.002 4.893-6.829 1.642-1.82 2.787-2.651 3.435-2.491v0c0.363 0.089 0.634 0.355 0.813 0.797 0.186 0.444 0.234 0.85 0.143 1.219-0.092 0.375-0.806 1.35-2.14 2.924-1.341 1.572-2.78 3.514-4.318 5.827-1.532 2.321-2.559 4.54-3.079 6.657v0c-0.185 0.751-0.103 1.437 0.245 2.058 0.348 0.621 0.862 1.015 1.542 1.183v0c1.631 0.401 3.709-0.426 6.234-2.483 2.531-2.055 4.792-4.392 6.782-7.013v0c1.974-2.556 3.544-5.001 4.709-7.337v0c0.066-0.128 0.107-0.224 0.123-0.289zM65.141-2.162c0.087-0.567 0.355-1.035 0.804-1.404 0.442-0.37 0.896-0.519 1.364-0.448 0.461 0.071 0.905 0.716 1.33 1.936 0.426 1.219 0.6 2.076 0.524 2.57v0c-0.128 0.83-0.475 1.202-1.042 1.114v0c-0.698-0.108-1.391-0.623-2.078-1.545-0.688-0.916-0.989-1.657-0.902-2.223zM61.496 7.232c0.362-0.774 0.675-1.312 0.937-1.616 0.268-0.296 0.551-0.421 0.847-0.376 0.303 0.047 0.601 0.322 0.895 0.826 0.293 0.504 0.407 0.97 0.341 1.399v0c-0.343 2.22-3.028 8.41-8.056 18.568v0c-0.918 1.754-1.707 2.58-2.366 2.479v0c-0.336-0.052-0.598-0.234-0.786-0.547-0.187-0.319-0.248-0.686-0.184-1.101 0.064-0.415 0.34-1.152 0.826-2.209 0.488-1.065 1.111-2.412 1.869-4.043 0.764-1.629 1.37-2.979 1.819-4.05 0.455-1.07 0.971-2.312 1.546-3.727 0.577-1.422 1.016-2.518 1.317-3.288 0.308-0.769 0.639-1.541 0.995-2.315zM72.448 30.708c-1.853-0.159-3.482-0.978-4.888-2.458-1.405-1.486-2.014-3.308-1.828-5.466 0.185-2.152 1.077-4.514 2.676-7.087 1.606-2.572 3.567-4.719 5.883-6.44 2.323-1.721 4.47-2.496 6.443-2.327v0c1.468 0.126 2.618 0.754 3.452 1.883 0.826 1.135 1.21 2.038 1.152 2.708-0.057 0.664-0.285 0.979-0.683 0.945-0.405-0.035-1.002-0.447-1.791-1.238-0.789-0.79-1.518-1.214-2.189-1.272v0c-1.335-0.115-2.926 0.572-4.774 2.059-1.848 1.494-3.461 3.326-4.838 5.496-1.384 2.169-2.137 3.965-2.26 5.386-0.122 1.421 0.175 2.558 0.892 3.409 0.722 0.858 1.791 1.348 3.206 1.47 1.421 0.122 2.771 0.034 4.047-0.264 1.27-0.292 2.28-0.6 3.03-0.924 0.75-0.324 1.292-0.471 1.624-0.443v0c0.472 0.041 0.684 0.33 0.638 0.868v0c-0.06 0.697-1.242 1.529-3.547 2.495-2.304 0.96-4.386 1.359-6.245 1.2zM103.284 13.649c-1.12 1.192-2.137 2.609-3.05 4.252-0.906 1.642-1.348 3.12-1.326 4.432 0.022 1.306 0.407 2.447 1.157 3.422 0.756 0.981 1.582 1.714 2.477 2.199 0.902 0.492 1.723 0.958 2.464 1.399 0.747 0.441 1.124 0.811 1.128 1.111v0c0.009 0.567-0.456 0.858-1.395 0.874v0c-1.54 0.026-3.307-0.798-5.302-2.472-1.988-1.68-3-3.561-3.034-5.641v0l-0.01-0.55c-2.824 3.768-4.704 6.196-5.639 7.285-0.942 1.089-1.613 1.637-2.013 1.644-0.4 0.007-0.764-0.264-1.094-0.812-0.329-0.548-0.498-1.089-0.507-1.622-0.009-0.54 0.491-2.722 1.501-6.546 1.01-3.824 2.007-8.411 2.992-13.761 0.984-5.35 1.441-10.172 1.369-14.465v0c-0.009-0.54 0.052-0.901 0.182-1.083 0.13-0.189 0.399-0.287 0.805-0.294 0.4-0.007 0.816 0.346 1.248 1.06 0.432 0.713 0.655 1.473 0.668 2.279v0c0.123 7.379-1.787 17.612-5.729 30.699v0c5.56-8.447 9.921-14.411 13.083-17.89v0c1.389-1.497 2.293-2.248 2.713-2.255 0.42-0.007 0.816 0.18 1.19 0.56 0.373 0.381 0.562 0.711 0.566 0.991 0.005 0.287-0.455 0.924-1.378 1.913-0.917 0.989-1.939 2.079-3.066 3.271zM129.384 34.572v0c0.232-0.028 0.46 0.029 0.685 0.17 0.218 0.142 0.342 0.332 0.37 0.57v0c0.059 0.496-0.434 1.113-1.481 1.849-1.041 0.729-2.081 1.545-3.121 2.448-1.047 0.904-1.867 1.62-2.462 2.148-0.595 0.528-1.041 0.809-1.339 0.845-0.298 0.036-0.64-0.212-1.026-0.743-0.385-0.525-0.614-1.088-0.686-1.691-0.072-0.602 0.397-3.022 1.408-7.259 1.016-4.244 1.68-7.029 1.991-8.355v0c-1.096 1.555-2.398 2.879-3.905 3.972-1.508 1.087-2.894 1.706-4.159 1.857-1.264 0.151-2.557-0.325-3.877-1.429-1.315-1.112-2.052-2.333-2.211-3.664v0c-0.259-2.165 0.188-4.796 1.341-7.895 1.147-3.092 2.74-5.857 4.778-8.296 2.045-2.44 4.066-3.78 6.066-4.019v0c1.297-0.155 2.565 0.224 3.802 1.136 1.245 0.919 1.908 1.719 1.989 2.401 0.082 0.682-0.086 1.048-0.503 1.097-0.417 0.05-1.105-0.257-2.064-0.921-0.952-0.658-1.795-0.943-2.53-0.856v0c-1.47 0.176-3.045 1.345-4.727 3.507-1.683 2.155-3.032 4.569-4.048 7.242-1.016 2.673-1.427 4.827-1.231 6.462v0c0.08 0.669 0.41 1.237 0.99 1.704 0.58 0.474 1.188 0.674 1.824 0.598v0c2.098-0.251 4.217-1.596 6.355-4.034 2.139-2.438 3.468-5.444 3.987-9.017v0c0.077-0.479 0.34-0.746 0.791-0.8 0.45-0.054 0.878 0.046 1.285 0.3 0.4 0.254 0.626 0.607 0.68 1.056 0.054 0.45-0.093 1.492-0.442 3.125-0.343 1.626-1.02 4.55-2.032 8.774-1.018 4.231-1.917 8.166-2.697 11.803v0c2.868-2.572 4.934-3.934 6.199-4.085zM147.396 0.613v0c-0.12-0.52 0.064-0.836 0.552-0.948v0c0.39-0.09 0.869 0.118 1.436 0.624 0.561 0.507 0.918 1.089 1.069 1.745v0c0.045 0.195-0.283 6.913-0.984 20.154v0c-0.081 1.462-0.381 2.253-0.901 2.373v0c-0.721 0.166-1.206-0.29-1.454-1.369-0.248-1.078-0.224-3.441 0.072-7.087v0c-0.743 2.894-1.802 5.279-3.176 7.155-1.373 1.883-2.813 2.997-4.319 3.344-1.501 0.345-2.901 0.059-4.2-0.86-1.294-0.927-2.099-2.075-2.415-3.446v0c-0.467-2.027-0.593-4.625-0.378-7.793 0.216-3.162 0.646-5.929 1.291-8.302 0.646-2.365 1.294-3.623 1.943-3.772v0c0.364-0.084 0.726 0.031 1.085 0.346 0.366 0.313 0.592 0.654 0.677 1.024 0.087 0.377-0.111 1.568-0.593 3.574-0.489 2.007-0.898 4.39-1.228 7.148-0.322 2.763-0.238 5.206 0.251 7.33v0c0.173 0.754 0.556 1.329 1.146 1.727 0.591 0.398 1.227 0.518 1.91 0.361v0c1.637-0.377 3.119-2.052 4.446-5.026 1.333-2.975 2.298-6.08 2.894-9.316v0c0.611-3.171 0.91-6.062 0.897-8.673v0c0.001-0.144-0.006-0.248-0.021-0.313zM156.494-10.981c-0.177-0.545-0.149-1.084 0.085-1.616 0.227-0.53 0.566-0.868 1.016-1.014 0.444-0.144 1.13 0.232 2.06 1.129 0.929 0.896 1.472 1.582 1.626 2.058v0c0.26 0.799 0.117 1.287-0.428 1.464v0c-0.672 0.219-1.523 0.071-2.552-0.443-1.027-0.507-1.629-1.033-1.807-1.578zM157.474-0.952c-0.025-0.854 0.011-1.476 0.109-1.865 0.106-0.385 0.302-0.624 0.587-0.717 0.292-0.095 0.682 0.017 1.17 0.334 0.489 0.318 0.8 0.683 0.935 1.095v0c0.695 2.137 1.087 8.872 1.177 20.206v0c-0.029 1.979-0.361 3.072-0.995 3.279v0c-0.323 0.105-0.639 0.061-0.948-0.134-0.311-0.2-0.531-0.5-0.66-0.899-0.13-0.399-0.216-1.181-0.258-2.346-0.044-1.17-0.095-2.654-0.154-4.45-0.052-1.799-0.119-3.277-0.202-4.435-0.076-1.16-0.176-2.502-0.299-4.025-0.126-1.529-0.228-2.705-0.306-3.528-0.072-0.825-0.124-1.663-0.156-2.515zM163.347-3.735v0c-0.39-0.964 2.012-2.495 7.204-4.593v0c2.646-1.069 4.635-1.474 5.969-1.215v0c0.619 0.109 1.237 0.384 1.854 0.825 0.608 0.437 1.013 0.906 1.216 1.407v0c0.44 1.088 0.234 2.724-0.616 4.909-0.854 2.193-1.911 4.285-3.17 6.274v0c-3.351 5.409-4.863 8.519-4.535 9.329v0c0.302 0.748 1.031 0.888 2.187 0.421v0c1.959-0.792 4.257-1.903 6.892-3.335 2.644-1.428 4.186-2.231 4.625-2.408 0.433-0.175 0.766-0.266 1-0.275 0.236-0.002 0.411 0.136 0.523 0.415v0c0.315 0.779-1.058 2.15-4.119 4.112-3.063 1.957-5.698 3.381-7.905 4.273v0c-1.279 0.517-2.576 0.556-3.89 0.116-1.322-0.444-2.147-1.07-2.474-1.88-0.327-0.81-0.013-2.274 0.942-4.393 0.947-2.123 2.074-4.254 3.382-6.393 1.307-2.139 2.457-4.221 3.45-6.247 0.984-2.03 1.352-3.354 1.102-3.973v0c-0.302-0.748-2.255-0.394-5.858 1.063v0c-0.686 0.277-1.595 0.742-2.727 1.393-1.123 0.655-1.904 1.071-2.343 1.248-0.433 0.175-0.953 0.141-1.562-0.102-0.603-0.245-0.985-0.569-1.147-0.971z" opacity="1" transform="matrix(1,0,0,1,0,0)" fill="#454545" class="undefined-text-0" data-fill-palette-color="primary" id="text-0"></path></svg></g></svg></g></svg></g></svg></g><g transform="matrix(1,0,0,1,97.4988318407921,0)"><svg viewBox="0 0 200.52233631841577 122.65514197177632" height="122.65514197177632" width="200.52233631841577"><g><svg xmlns="http://www.w3.org/2000/svg" xmlns:xlink="http://www.w3.org/1999/xlink" version="1.1" x="0" y="0" viewBox="4.280035867857763 20 91.71979628102956 56.10300000000001" enable-background="new 0 0 100 100" xml:space="preserve" height="122.65514197177632" width="200.52233631841577" class="icon-icon-0" data-fill-palette-color="accent" id="icon-0"><g fill="#454545" data-fill-palette-color="accent"><path d="M68.633 55.761c-0.157 0-0.317 0.01-0.474 0.032-1.972 0.264-3.362 2.081-3.1 4.053 0.238 1.785 1.777 3.131 3.579 3.131 0.158 0 0.317-0.01 0.475-0.031 1.971-0.264 3.361-2.081 3.1-4.054C71.974 57.107 70.435 55.761 68.633 55.761z" fill="#454545" data-fill-palette-color="accent"></path><path d="M73.58 34.083c-1.609-1.063-3.733-1.625-6.146-1.625-0.709 0-1.438 0.049-2.166 0.146-2.408 0.321-4.744 1.487-6.41 3.197-1.689 1.736-2.51 3.855-2.248 5.813 0.192 1.445 1.28 2.379 2.771 2.379 0.16 0 0.323-0.012 0.486-0.033 1.992-0.266 2.422-1.638 2.836-2.964 0.473-1.512 0.919-2.939 3.493-3.283 0.264-0.035 0.521-0.053 0.765-0.053 1.853 0 3.003 0.978 3.24 2.754 0.232 1.738-1.142 3.124-2.597 4.591-1.633 1.647-3.484 3.513-3.131 6.16 0.091 0.682 0.392 1.318 0.846 1.791 0.521 0.543 1.203 0.83 1.972 0.83 0.141 0 0.287-0.009 0.432-0.029 2.084-0.278 2.368-1.487 2.642-2.658 0.104-0.442 0.212-0.9 0.42-1.312 0.289-0.576 1.012-1.252 1.851-2.034 2.002-1.871 4.743-4.433 4.236-8.228C76.555 37.148 75.446 35.317 73.58 34.083z" fill="#454545" data-fill-palette-color="accent"></path><path d="M95.961 65.606l-5.583-41.84C90.091 21.62 88.243 20 86.078 20c-0.191 0-0.386 0.013-0.577 0.039l-41.839 5.583c-2.372 0.317-4.044 2.504-3.728 4.877l0.319 2.394-27.441-3.965c-0.16-0.023-0.323-0.035-0.484-0.035-1.661 0-3.092 1.241-3.331 2.886L4.315 64.188c-0.128 0.891 0.098 1.777 0.636 2.498 0.539 0.72 1.325 1.188 2.216 1.316l32.408 4.682c0.161 0.022 0.324 0.033 0.484 0.033 1.661 0 3.092-1.239 3.33-2.885l0.932-6.453 1.195 8.957c0.287 2.148 2.135 3.767 4.299 3.767 0.192 0 0.387-0.012 0.578-0.037l41.84-5.585c1.147-0.152 2.169-0.744 2.873-1.665C95.812 67.896 96.114 66.755 95.961 65.606zM40.623 69.434c-0.044 0.307-0.334 0.529-0.647 0.483L7.567 65.235c-0.205-0.029-0.323-0.152-0.376-0.223-0.053-0.071-0.137-0.221-0.108-0.425l4.682-32.409c0.041-0.279 0.283-0.49 0.563-0.49 0.028 0 0.057 0.002 0.084 0.006l28.226 4.077 2.328 17.444L40.623 69.434zM92.244 66.627c-0.069 0.091-0.225 0.248-0.488 0.283l-41.839 5.584c-0.405 0.056-0.774-0.235-0.828-0.633l-5.583-41.839c-0.054-0.403 0.23-0.774 0.633-0.828l41.838-5.584c0.035-0.004 0.067-0.006 0.102-0.006 0.366 0 0.68 0.275 0.728 0.64l5.585 41.84C92.425 66.347 92.312 66.537 92.244 66.627z" fill="#454545" data-fill-palette-color="accent"></path><path d="M33.159 41.087c-1.284-1.176-3.186-1.997-5.354-2.31-0.396-0.058-0.803-0.087-1.208-0.087-1.703 0-3.377 0.5-4.717 1.408-1.377 0.934-2.246 2.203-2.443 3.572-0.094 0.651 0.061 1.231 0.45 1.679 0.35 0.402 0.877 0.673 1.485 0.761 0.153 0.022 0.3 0.034 0.44 0.034 1.227 0 1.775-0.837 2.305-1.646 0.591-0.906 1.151-1.762 2.64-1.762 0.206 0 0.429 0.017 0.66 0.05 1.764 0.254 2.645 1.298 2.418 2.864-0.193 1.345-1.513 2.09-2.908 2.877-1.567 0.884-3.344 1.886-3.64 3.937-0.083 0.572 0.033 1.168 0.32 1.633 0.235 0.382 0.695 0.863 1.557 0.988 0.18 0.025 0.351 0.039 0.509 0.039h0.001c1.212 0 1.625-0.745 2.023-1.465 0.171-0.309 0.347-0.628 0.59-0.891 0.337-0.369 1.021-0.721 1.812-1.128 1.89-0.972 4.479-2.306 4.903-5.244C35.303 44.305 34.667 42.469 33.159 41.087z" fill="#454545" data-fill-palette-color="accent"></path><path d="M25.057 56.696c-0.132-0.019-0.265-0.03-0.397-0.03-1.383 0-2.576 1.033-2.774 2.4-0.219 1.527 0.844 2.949 2.371 3.17 0.132 0.02 0.266 0.028 0.397 0.028 1.384 0 2.577-1.031 2.774-2.398C27.647 58.339 26.584 56.918 25.057 56.696z" fill="#454545" data-fill-palette-color="accent"></path></g></svg><g></g></g></svg></g><g></g></svg></g><defs></defs></svg><rect width="395.52" height="254.05347580147298" fill="none" stroke="none" visibility="hidden"></rect></g></svg></g></svg>